<svg xmlns="http://www.w3.org/2000/svg" width="1004" height="1890" fill="none" viewBox="0 0 1064  2052">
 <path fill="#0E1629" d="M1047.37 292h-2.02V79.86C1045.35 9.521 994.338 0 924 0H145.499C75.16 0 18.65 9.521 18.65 79.86V292h-2.022C7.445 292 0 299.444 0 308.627v146.745C0 464.555 7.444 472 16.628 472h2.022v35h-2.022C7.445 507 0 514.444 0 523.627v146.745c0 9.183 7.444 16.627 16.628 16.627h2.022V1972.14c0 70.34 63.01 79.86 133.349 79.86h760.5c70.339 0 132.851-9.52 132.851-79.86V562h2.02c9.19 0 16.63-7.444 16.63-16.628V308.627c0-9.183-7.44-16.627-16.63-16.627Z"/>
 </svg>