<svg width="568" height="628" viewBox="0 0 568 628" fill="none" xmlns="http://www.w3.org/2000/svg">
<mask id="mask0_1_118" style="mask-type:luminance" maskUnits="userSpaceOnUse" x="0" y="0" width="568" height="628">
<path d="M0 627.444H567.477V-3.29153e-06H0V627.444Z" fill="white"/>
</mask>
<g mask="url(#mask0_1_118)">
<path d="M226.86 568.281C206.563 557.746 153.791 554.185 130.4 550.81C91.0588 545.355 48.6055 508.198 27.4962 475.989C5.8895 442.759 2.65617 399.413 4.95617 365.223C9.15884 301.841 55.5602 259.229 49.5762 207.071C46.2122 178.357 4.29616 127.837 28.8162 100.038C30.4002 98.2661 31.5695 97.6647 31.5695 97.6647C55.3335 79.3354 74.9268 63.7487 92.1415 38.3487C96.6842 31.5261 104.024 26.5154 112.449 26.6621L114.327 26.7061C132.419 26.5154 144.481 42.7914 174.144 40.1714C217.681 36.4754 229.563 4.40474 283.685 4.48074C283.685 4.48074 290.573 4.48072 299.739 5.61139C356.247 12.5367 371.621 62.7648 439.587 29.5994C443.7 27.5808 448.493 26.6621 453.061 26.7061L454.877 26.6621C463.295 26.5154 470.648 31.5261 475.325 38.3487C493.101 64.7847 511.491 78.9954 536.281 97.9034C550.583 108.325 546.292 134.897 540.343 148.927C519.281 198.882 503.761 213.525 531.916 270.787C545.207 297.958 560.083 330.226 562.42 365.223C564.667 399.413 561.431 442.759 539.833 475.989C518.923 508.198 476.345 545.355 437.359 550.81C413.579 554.185 360.731 557.746 340.465 568.281C318.259 579.966 298.551 599.933 283.685 619.951C268.813 599.933 249.083 579.966 226.86 568.281Z" fill="#088152"/>
<path d="M283.685 627.443L280.18 622.617C268.248 606.755 248.932 584.866 224.842 572.298C209.916 564.531 174.796 560.507 149.212 557.746C141.729 556.755 134.934 556.061 129.61 555.37C89.4651 549.511 45.9771 512.286 23.8971 478.495C0.753054 442.95 -1.64028 397.114 0.471721 365.091C2.56239 333.834 14.1717 308.197 25.4424 283.49C37.241 257.871 48.2304 233.635 45.233 207.637C44.2037 198.609 38.6731 186.682 32.9731 174.007C20.9944 147.618 7.38772 117.685 25.4424 97.0995C27.3557 94.8981 28.9024 93.9141 29.4104 93.7341C53.4597 75.2074 72.1277 60.0581 88.4464 35.8355C94.3851 27.1728 103.046 22.1141 112.214 22.1141L114.608 22.2088C123.154 22.2088 130.034 25.2981 137.374 28.4821C147.438 32.7368 157.814 37.7915 173.92 35.8355C192.568 34.2341 205.09 27.0795 218.436 19.4541C235.286 9.86078 252.669 -0.000552608 283.4 -0.000552608C284.013 -0.000552608 290.884 -0.000531786 300.29 1.2208C322.093 3.83413 338.282 12.7714 352.59 20.7168C367.506 29.1368 380.464 36.3408 397.924 36.3408C409.745 36.3408 422.733 32.9301 437.721 25.6781C441.982 23.4714 447.305 22.2088 452.685 22.2088L454.597 22.1141C464.43 22.1141 473.132 27.2195 478.846 35.8355C496.762 62.1608 515.372 76.4234 538.937 94.2474C555.281 106.273 551.244 134.666 544.514 150.615C541.51 157.818 538.614 164.037 536 169.879C519.896 205.378 512.604 221.61 535.896 268.815C550.27 298.097 564.436 329.765 566.916 365.091C569.06 397.114 566.681 442.911 543.526 478.495C521.59 512.286 478.232 549.511 437.817 555.37C432.536 556.061 425.692 556.755 418.213 557.746C392.641 560.507 357.644 564.531 342.581 572.298C318.26 585.007 299.26 606.755 287.28 622.617L283.685 627.443ZM112.214 31.1048C106.089 31.1048 100.001 34.6595 95.8371 40.8875C78.6771 66.0901 59.4424 81.9021 34.2357 101.227C33.8584 101.547 33.1704 101.873 32.1717 102.987C17.8091 119.275 30.1557 146.402 41.0664 170.305C47.097 183.642 52.8077 196.082 54.109 206.503C57.201 235.091 45.741 260.341 33.6237 287.329C22.6744 311.19 11.4117 336.082 9.34906 365.601C7.38773 396.426 9.62239 440.15 31.3317 473.549C51.7717 504.89 93.6397 541.141 130.966 546.419C136.065 547.162 142.746 547.926 150.24 548.755C176.577 551.806 212.537 555.786 229.056 564.341C252.302 576.593 271.104 596.515 283.685 612.554C296.217 596.515 314.989 576.593 338.362 564.341C354.936 555.786 390.954 551.806 417.233 548.755C424.618 547.926 431.4 547.162 436.586 546.419C473.868 541.141 515.74 504.89 536.13 473.549C557.832 440.027 560.082 396.426 557.973 365.601C555.686 331.869 541.928 301.379 527.896 272.798C502.834 221.667 511.772 202.019 527.896 166.234C530.51 160.531 533.334 154.219 536.281 147.246C542.125 133.361 545.109 109.918 533.604 101.547C510.32 83.7275 490.258 68.4701 471.522 40.8875C467.42 34.6595 461.441 31.1048 455.169 31.1048L453.346 31.2488C448.658 31.2488 444.878 31.9475 441.472 33.6301C425.318 41.4341 411.204 45.2728 397.924 45.2728C378.257 45.2728 363.673 37.1848 348.184 28.4821C334.112 20.5834 319.284 12.5368 299.26 10.0168C290.374 8.98478 283.778 8.9848 283.685 8.9848C255.066 8.9848 238.697 18.3235 222.734 27.3128C209.218 34.8928 195.236 42.9381 174.616 44.7648C156.269 45.9341 144.256 41.1621 133.869 36.6221C127.13 33.6768 121.241 31.2488 114.741 31.2488L112.214 31.1048Z" fill="white"/>
<path d="M233.268 556.061C250.532 565.058 271.057 582.858 283.685 597.465C333.232 540.445 367.46 546.711 435.233 537.127C468.772 532.341 508.356 498.895 528.27 468.393C547.4 439.029 550.917 399.271 548.765 366.299C544.738 305.431 497.397 263.302 504.044 205.525C507.512 176.057 540.776 135.929 530.089 111.931C529.25 110.477 528.422 109.547 528.094 109.075C528.094 109.075 513.872 98.1259 499.648 86.9952C484.721 75.1232 470.977 56.7285 463.825 46.1099C461.864 43.1712 458.588 40.5046 454.749 40.5046L453.045 40.6499C453.045 40.6499 452.117 40.5472 450.712 40.6899C443.478 41.4432 434.817 47.2339 428.088 49.2966C401.514 58.0899 376.485 54.6846 351.892 41.9992C324.393 27.9192 316.81 18.4752 283.685 18.4752C283.685 18.4752 277.464 18.4752 269.322 19.3552C220.406 25.2979 202.434 69.9366 139.241 49.2966C129.329 46.1099 122.485 41.0619 112.348 40.5472C108.652 40.5045 105.478 43.2659 103.564 46.1099C85.6971 72.6392 64.0318 90.1299 39.1078 109.261C27.3664 122.603 42.5664 149.855 48.4077 162.403C69.0931 206.845 70.6744 230.534 47.9464 276.954C34.5651 304.179 20.9011 334.254 18.7158 366.299C16.6424 399.271 20.0731 439.029 39.1451 468.393C59.0758 498.895 98.5584 532.341 132.173 537.127C158.474 540.954 210.248 543.997 233.268 556.061ZM226.86 568.281C206.562 557.727 153.798 554.185 130.412 550.81C91.0677 545.345 48.6051 508.217 27.4958 475.989C5.87976 442.759 2.66643 399.431 4.95576 365.223C9.1691 301.833 55.5598 259.229 49.5758 207.071C46.2118 178.351 4.30776 127.827 28.8171 100.047C30.3998 98.2712 31.5691 97.6712 31.5691 97.6712C55.3344 79.3206 74.9344 63.7539 92.1317 38.3512C96.6837 31.5259 104.024 26.5206 112.45 26.6486L114.326 26.7085C132.409 26.5205 144.482 42.7912 174.136 40.1792C217.681 36.4765 229.564 4.38724 283.685 4.49391C283.685 4.49391 290.561 4.49388 299.738 5.61122C356.246 12.5326 371.621 62.7726 439.588 29.6126C443.712 27.5859 448.482 26.6485 453.045 26.7085L454.888 26.6486C463.294 26.5206 470.658 31.5259 475.232 38.3512C493.101 64.7845 511.49 78.9899 536.26 97.8939C550.594 108.325 546.292 134.897 540.332 148.927C519.281 198.887 503.762 213.525 531.917 270.787C545.118 297.958 560.093 330.235 562.41 365.223C564.666 399.431 561.432 442.759 539.822 475.989C518.924 508.217 476.356 545.345 437.342 550.81C413.578 554.185 360.824 557.727 340.465 568.281C318.268 579.966 298.55 599.943 283.685 619.959C268.814 599.943 249.072 579.966 226.86 568.281Z" fill="#088152"/>
<path d="M283.685 24.2215C285.604 24.2215 309.504 24.5602 325.129 32.4642C341.488 40.6508 359.148 56.5948 388 59.2601C415.464 61.5948 432.753 52.8455 435.848 51.5015C438.566 50.0468 445.608 47.9401 445.608 47.9401C445.608 47.9401 455.294 43.4975 462.045 53.5042C468.78 63.5615 481.502 80.3935 495.064 91.0682C508.442 101.781 522.157 111.044 522.157 111.044C522.157 111.044 531.032 119.889 524.954 133.963C518.553 149.3 500.782 183.916 498.616 200.568C494.544 230.267 500.501 249.173 513.313 275.179C526.038 301.369 540.261 332.389 542.349 364.508C544.514 396.613 543.052 434.308 523.646 464.293C503.996 494.279 468.866 527.514 429.213 533.096C389.412 538.9 350.476 541.651 332.196 551.3C313.858 560.781 293.785 576.705 283.685 590.427C273.44 576.705 253.53 560.781 235.321 551.3C216.757 541.651 177.972 538.9 138.27 533.096C98.4638 527.514 63.3824 494.279 43.8291 464.293C24.4157 434.308 22.9558 396.613 25.0678 364.508C27.2238 332.389 41.3971 301.369 54.2038 275.179C66.8304 249.173 72.9664 230.267 68.8571 200.568C66.5677 183.916 48.7837 149.3 42.2357 133.963C36.4891 119.889 45.3264 111.044 45.3264 111.044C45.3264 111.044 58.8784 101.781 72.4078 91.0682C85.8664 80.3935 98.6811 63.5615 105.374 53.5042C112.062 43.4975 121.75 47.9401 121.75 47.9401C121.75 47.9401 128.761 50.0468 131.71 51.5015C134.568 52.8455 151.981 61.5948 179.422 59.2601C208.278 56.5948 225.92 40.6508 242.202 32.4642C258.006 24.5602 281.865 24.2215 283.685 24.2215Z" fill="white"/>
<path d="M283.08 33.8673C283.08 33.8673 306.622 33.8673 322.473 41.8153C338.274 49.718 355.386 64.546 383.142 67.5966C410.958 70.6806 432.484 61.9726 435.186 60.6713C437.796 59.21 444.784 57.106 444.784 57.106C444.784 57.106 450.348 54.866 454.737 61.0407C461.536 70.582 473.868 87.6233 487.069 98.0326C500.064 108.325 514.106 117.221 514.106 117.221C514.106 117.221 518.074 122.086 512.6 133.869C507.22 145.597 490.762 176.57 487.992 198.598C485.326 220.73 489.746 251.267 502.085 276.389C514.429 301.561 530.193 331.535 532.354 362.547C534.313 393.655 532.566 430.757 513.673 459.713C494.877 488.615 461.346 519.713 422.756 525.237C384.442 530.615 346.518 533.095 328.597 542.463C310.898 551.807 293.785 565.418 283.966 578.666C274.108 565.418 255.149 551.807 237.526 542.463C219.697 533.095 181.572 530.615 143.273 525.237C104.826 519.713 71.1463 488.615 52.3356 459.713C33.6236 430.757 31.7569 393.655 33.8476 362.547C35.8649 331.535 51.6409 301.561 64.0316 276.389C76.3783 251.267 81.5703 229.422 78.6663 207.207C75.9529 185.174 59.1596 149.394 52.1489 135.457C46.1556 123.95 52.0543 117.221 52.0543 117.221C52.0543 117.221 66.0396 108.325 79.0436 98.0326C92.1423 87.6233 104.489 70.478 111.366 61.0407C115.662 55.234 121.657 56.9727 121.657 56.9727C121.657 56.9727 130.968 59.582 133.729 60.942C136.525 62.3927 155.194 70.6806 183.069 67.5966C210.812 64.546 227.886 49.718 243.653 41.8153C259.42 33.8673 283.08 33.8673 283.08 33.8673Z" fill="#088152"/>
<path d="M241.353 173.722C241.176 176.05 241.673 181.999 237.886 181.999C233.213 181.999 233.08 177.134 233.08 174.094V164.036C233.08 161.09 232.656 154.826 237.886 154.826C241.176 154.826 240.937 159.175 241.176 161.499H247.901C247.989 160.536 247.901 159.694 247.866 158.751C247.348 152.527 243.878 149.394 237.886 149.3C227.134 149.3 226.352 156.183 226.058 165.438V170.678C226.058 180.407 226.766 187.512 237.886 187.512C245.329 187.512 247.666 182.419 247.989 175.776C248.092 175.13 248.092 174.38 248.196 173.722H241.353Z" fill="white"/>
</g>
<path d="M269.888 150.191V164.594H260.388V150.191H253.699V186.682H260.388V169.88H269.888V186.682H276.757V150.191H269.888Z" fill="white"/>
<path d="M283.4 186.681H290.093V150.133H283.4V186.681Z" fill="white"/>
<path d="M296.688 150.191V186.682H316.113V181.302H303.566V150.191H296.688Z" fill="white"/>
<path d="M320.878 150.191V186.682H339.914V181.302H327.612V169.974H339.039V164.647H327.612V155.478H339.914V150.191H320.878Z" fill="white"/>
<mask id="mask1_1_118" style="mask-type:luminance" maskUnits="userSpaceOnUse" x="0" y="0" width="568" height="628">
<path d="M0 627.444H567.477V-3.29153e-06H0V627.444Z" fill="white"/>
</mask>
<g mask="url(#mask1_1_118)">
<path d="M121.902 125.765C121.809 128.025 122.261 134.153 118.473 134.153C113.938 134.153 113.666 129.233 113.666 126.202V116.054C113.666 113.232 113.234 106.885 118.473 106.885C121.809 106.885 121.57 111.276 121.902 113.57H128.63C128.678 112.59 128.63 111.7 128.439 110.798C128.065 104.632 124.615 101.546 118.473 101.302C107.805 101.302 106.965 108.325 106.646 117.494V122.686C106.646 132.46 107.435 139.613 118.473 139.613C126.011 139.613 128.346 134.574 128.678 127.826C128.725 127.126 128.725 126.433 128.762 125.765H121.902Z" fill="white"/>
<path d="M143.594 113.76C143.925 112.072 144.162 110.477 144.255 108.797C144.255 107.865 144.482 107.115 144.482 106.273H144.726C144.726 107.115 144.802 107.865 144.802 108.797C145.046 110.477 145.187 112.072 145.613 113.76L147.289 124.181H141.493L143.594 113.76ZM138.674 138.783L140.559 129.52H148.551L150.23 138.783H157.494L149.211 102.248H140.135L131.343 138.783H138.674Z" fill="white"/>
<path d="M167.915 107.526H172.967C175.541 107.526 177.274 108.326 177.274 112.387C177.274 115.998 175.541 117.452 173.298 117.684H167.915V107.526ZM169.17 122.966C171.063 122.966 173.165 122.966 174.881 123.432C177.274 124.182 177.274 127.262 177.274 129.52C177.274 131.9 177.274 136.394 177.971 138.782H185.51V138.071C183.777 137.002 183.965 128.023 183.965 126.515C183.965 122.966 182.843 120.439 178.63 119.886V119.739C183.341 119.176 184.341 115.023 184.341 110.904C184.341 104.307 179.893 102.252 174.05 102.252H161.085V138.782H167.915V122.966H169.17Z" fill="white"/>
<path d="M200.201 113.76C200.531 112.072 200.758 110.477 200.946 108.797C200.946 107.865 201.078 107.115 201.078 106.273H201.135C201.417 107.115 201.455 107.865 201.455 108.797C201.69 110.477 201.877 112.072 202.209 113.76L204.001 124.181H198.231L200.201 113.76ZM195.329 138.783L197.243 129.52H205.066L206.837 138.783H214.082L205.903 102.248H196.686L188.091 138.783H195.329Z" fill="white"/>
<path d="M229.809 138.777C234.569 138.777 237.188 136.724 238.697 132.139C239.073 130.741 239.111 129.233 239.111 127.644C239.111 122.965 237.66 119.739 233.777 119.176V119.045C237.567 117.731 238.215 114.599 238.215 111.507C238.215 108.992 237.905 106.875 236.351 104.915C234.531 102.333 231.687 102.252 228.727 102.252H217.739V138.777H229.809ZM224.56 117.028V107.525H227.652C230.828 107.671 231.299 109.069 231.299 111.747C231.299 113.564 231.299 114.78 230.647 115.635C229.563 117.075 227.416 117.028 225.728 117.028H224.56ZM224.56 133.351V122.359H227.276C231.299 122.359 232.137 123.949 232.137 127.837C232.137 129.804 231.903 132.139 230.092 132.931C228.916 133.589 227.416 133.351 226.052 133.351H224.56Z" fill="white"/>
</g>
<path d="M244.953 138.777H251.737V102.248H244.953V138.777Z" fill="white"/>
<mask id="mask2_1_118" style="mask-type:luminance" maskUnits="userSpaceOnUse" x="0" y="0" width="568" height="628">
<path d="M0 627.444H567.477V-3.29153e-06H0V627.444Z" fill="white"/>
</mask>
<g mask="url(#mask2_1_118)">
<path d="M274.57 109.459C274.57 112.591 274.75 116.044 275.033 119.695C275.08 123.116 275.372 126.801 275.598 129.976H275.505C273.826 124.14 272.508 119.747 270.784 115.443L265.402 102.248H258.373V138.783H265.177V131.9C265.177 128.96 264.98 125.345 264.836 121.656C264.601 117.957 264.272 114.315 263.997 111.183H264.272C265.761 117.033 267.266 121.424 269.133 125.684L274.277 138.783H281.253V102.248H274.57V109.459Z" fill="white"/>
</g>
<path d="M287.947 102.253V138.778H307.02V133.35H294.561V122.09H305.961V116.746H294.561V107.526H307.02V102.253H287.947Z" fill="white"/>
<mask id="mask3_1_118" style="mask-type:luminance" maskUnits="userSpaceOnUse" x="0" y="0" width="568" height="628">
<path d="M0 627.444H567.477V-3.29153e-06H0V627.444Z" fill="white"/>
</mask>
<g mask="url(#mask3_1_118)">
<path d="M319.004 107.526H323.997C326.592 107.526 328.216 108.326 328.216 112.387C328.216 115.998 326.592 117.452 324.28 117.684H319.004V107.526ZM320.113 122.966C322.092 122.966 324.055 122.966 325.884 123.432C328.216 124.182 328.216 127.262 328.216 129.52C328.309 131.9 328.164 136.394 329.019 138.782H336.537V138.071C334.757 137.002 335.039 128.023 335.039 126.515C335.039 122.966 333.881 120.439 329.705 119.886V119.739C334.393 119.176 335.331 115.023 335.331 110.904C335.331 104.307 330.841 102.252 325.091 102.252H312.123V138.782H319.004V122.966H320.113Z" fill="white"/>
<path d="M348.621 116.044C348.621 113.245 348.184 106.738 353.528 106.738C358.528 106.738 358.393 113.284 358.393 116.289V125.59C358.393 129.044 358.393 134.153 353.528 134.153C348.752 134.153 348.621 129.096 348.621 126.194V116.044ZM341.652 122.825C341.652 132.653 342.445 139.66 353.528 139.66C364.611 139.66 365.413 132.653 365.413 122.825V117.593C365.076 108.325 364.329 101.31 353.528 101.31C342.721 101.31 341.925 108.325 341.652 117.593V122.825Z" fill="white"/>
<path d="M392.016 113.283C391.96 109.734 392.261 101.31 381.496 101.31C374.377 101.31 370.829 104.726 370.829 110.903C370.829 112.906 371.49 114.834 372.464 116.509C375.277 120.251 379.765 122.259 383.308 125.019C384.949 126.287 385.938 127.645 385.938 129.887C385.938 132.653 384.537 134.153 381.781 134.153C378.413 134.153 377.39 131.533 377.454 128.022V125.825H370.7V128.394C370.7 134.934 373.641 139.621 381.781 139.621C388.38 139.621 392.902 136.063 392.902 129.043C392.902 125.962 392.261 123.715 389.872 121.423C388 119.693 383.933 116.887 381.725 115.442C379.486 114.029 377.746 113.01 377.746 110.297C377.746 107.755 379.234 106.875 381.594 106.875C385.236 106.875 385.517 110.103 385.465 113.283H392.016Z" fill="white"/>
<path d="M423.546 138.777C425.224 138.777 427.004 138.777 428.515 137.804C434.075 134.565 434.075 126.288 434.075 118.995C434.075 112.905 433.592 108.844 432.15 106.408C429.92 102.945 426.734 102.252 425.13 102.252H410.959V138.777H423.546ZM417.703 133.351V107.525H422.235C426.266 107.525 427.15 110.945 427.15 119.692C427.15 130.173 426.734 133.351 420.776 133.351H417.703Z" fill="white"/>
</g>
<path d="M440.19 102.253V138.778H459.326V133.35H446.994V122.09H458.405V116.746H446.994V107.526H459.326V102.253H440.19Z" fill="white"/>
<path d="M149.872 504.052H416.337V460.836H149.872V504.052Z" fill="white"/>
<mask id="mask4_1_118" style="mask-type:luminance" maskUnits="userSpaceOnUse" x="0" y="0" width="568" height="628">
<path d="M0 627.444H567.477V-3.29153e-06H0V627.444Z" fill="white"/>
</mask>
<g mask="url(#mask4_1_118)">
<path d="M165.439 480.472C165.439 482.724 165.863 484.451 166.983 485.769C168.163 486.844 169.368 487.532 171.064 487.532C172.882 487.532 174.05 486.844 175.2 485.769C176.199 484.488 176.814 482.724 176.814 480.419C176.814 477.985 176.199 476.261 175.2 475.036C174.144 473.868 172.882 473.275 171.064 473.275C169.368 473.275 168.02 473.868 166.983 475.036C165.863 476.261 165.439 478.101 165.439 480.472ZM161.094 480.472C161.094 478.42 161.366 476.639 162.027 475.281C162.442 474.16 163.139 473.275 164.044 472.425C164.875 471.588 165.767 470.917 166.702 470.616C167.915 469.993 169.368 469.672 171.064 469.672C174.05 469.672 176.566 470.691 178.348 472.519C180.168 474.441 181.064 477.06 181.064 480.472C181.064 483.789 180.168 486.373 178.348 488.231C176.566 490.161 174.05 491.048 171.064 491.048C168.163 491.048 165.674 490.161 163.856 488.293C161.98 486.391 161.094 483.789 161.094 480.472Z" fill="#088152"/>
<path d="M188.394 478.928H191.495C193.501 478.928 194.67 478.748 195.235 478.496C195.659 478.363 196.166 478.229 196.405 477.723C196.63 477.336 196.781 476.78 196.781 476.024C196.781 475.423 196.591 474.953 196.271 474.441C195.885 474.103 195.329 473.784 194.67 473.649H191.637H188.394V478.928ZM184.331 490.705V470.137H192.953C195.235 470.137 196.781 470.277 197.854 470.691C198.787 470.975 199.495 471.72 200.201 472.512C200.806 473.596 201.078 474.679 201.078 475.932C201.078 477.373 200.521 478.748 199.722 479.72C198.787 480.7 197.477 481.377 195.659 481.643C196.591 482.152 197.347 482.717 197.854 483.376C198.506 483.94 199.309 485.099 200.201 486.693L202.679 490.705H197.854L194.819 486.241C193.698 484.592 192.953 483.603 192.709 483.149C192.162 482.717 191.765 482.576 191.305 482.433C190.975 482.207 190.186 482.152 189.297 482.152H188.394V490.705H184.331Z" fill="#088152"/>
<path d="M209.172 473.549V487.26H212.261C213.385 487.26 214.176 487.213 214.777 487.025C215.307 486.918 215.817 486.6 216.381 486.134C216.756 485.76 217.173 485.145 217.455 484.168C217.739 483.282 217.868 482.066 217.868 480.472C217.868 478.796 217.739 477.561 217.455 476.78C217.173 475.932 216.756 475.14 216.239 474.81C215.72 474.293 215.156 473.934 214.316 473.784C213.847 473.649 212.593 473.549 211.056 473.549H209.172ZM205.016 470.145H212.536C214.316 470.145 215.495 470.266 216.381 470.514C217.644 470.842 218.793 471.448 219.567 472.425C220.405 473.274 221.103 474.386 221.575 475.668C221.941 476.95 222.092 478.654 222.092 480.569C222.092 482.357 221.941 483.81 221.575 484.958C221.103 486.505 220.319 487.712 219.416 488.51C218.585 489.256 217.644 489.821 216.381 490.237C215.439 490.481 214.316 490.728 212.82 490.728H205.016V470.145Z" fill="#088152"/>
</g>
<path d="M225.634 470.137V490.716H241.165V487.26H229.809V481.643H240.044V478.241H229.809V473.649H240.949V470.137H225.634Z" fill="#088152"/>
<path d="M257.205 470.137V483.789L248.931 470.137H244.718V490.716H248.703V477.327L256.977 490.716H261.086V470.137H257.205Z" fill="#088152"/>
<path d="M285.75 470.137L281.025 478.241L276.163 470.137H271.291L278.823 481.972V490.716H282.986V482.055L290.561 470.137H285.75Z" fill="#088152"/>
<mask id="mask5_1_118" style="mask-type:luminance" maskUnits="userSpaceOnUse" x="0" y="0" width="568" height="628">
<path d="M0 627.444H567.477V-3.29153e-06H0V627.444Z" fill="white"/>
</mask>
<g mask="url(#mask5_1_118)">
<path d="M304.738 473.649V479.4H307.025C308.57 479.4 309.634 479.267 310.202 479.153C310.728 478.928 311.102 478.496 311.577 478.101C311.841 477.723 312.029 477.101 312.029 476.496C312.029 475.668 311.696 475.093 311.389 474.679C310.905 474.16 310.26 473.868 309.634 473.736C309.185 473.649 308.196 473.649 306.754 473.649H304.738ZM300.53 490.705V470.145H307.26C309.794 470.145 311.389 470.267 312.122 470.464C313.197 470.691 314.269 471.353 314.988 472.472C315.862 473.461 316.289 474.848 316.289 476.401C316.289 477.816 316.113 478.788 315.592 479.625C315.176 480.472 314.52 481.171 313.858 481.643C313.102 482.207 312.497 482.567 311.654 482.725C310.613 482.868 309.222 482.905 307.446 482.905H304.738V490.705H300.53Z" fill="#088152"/>
</g>
<path d="M327.69 474.953L330.456 482.631H324.997L327.69 474.953ZM325.552 470.146L317.738 490.715H321.946L323.737 486.035H331.914L333.685 490.715H338.189L329.957 470.146H325.552Z" fill="#088152"/>
<path d="M338.883 470.137V473.649H344.912V490.716H349.123V473.649H355.246V470.137H338.883Z" fill="#088152"/>
<mask id="mask6_1_118" style="mask-type:luminance" maskUnits="userSpaceOnUse" x="0" y="0" width="568" height="628">
<path d="M0 627.444H567.477V-3.29153e-06H0V627.444Z" fill="white"/>
</mask>
<g mask="url(#mask6_1_118)">
<path d="M362.121 478.928H365.085C367.08 478.928 368.347 478.748 368.819 478.496C369.287 478.363 369.661 478.229 369.985 477.723C370.324 477.336 370.501 476.78 370.501 476.024C370.501 475.423 370.22 474.953 369.829 474.441C369.351 474.103 368.915 473.784 368.347 473.649H365.205H362.121V478.928ZM357.883 490.705V470.137H366.537C368.819 470.137 370.501 470.277 371.491 470.691C372.387 470.975 373.317 471.72 373.819 472.512C374.433 473.596 374.761 474.679 374.761 475.932C374.761 477.373 374.247 478.748 373.36 479.72C372.387 480.7 371.059 481.377 369.287 481.643C370.22 482.152 370.829 482.717 371.591 483.376C372.095 483.94 372.897 485.099 373.819 486.693L376.297 490.705H371.491L368.347 486.241C367.361 484.592 366.537 483.603 366.152 483.149C365.735 482.717 365.401 482.576 364.935 482.433C364.517 482.207 363.861 482.152 362.881 482.152H362.121V490.705H357.883Z" fill="#088152"/>
</g>
<path d="M378.444 490.669H382.663V470.127H378.444V490.669Z" fill="#088152"/>
<path d="M394.559 474.953L397.407 482.631H391.979L394.559 474.953ZM392.528 470.146L384.344 490.715H388.923L390.568 486.035H398.745L400.579 490.715H404.917L396.849 470.146H392.528Z" fill="#088152"/>
<mask id="mask7_1_118" style="mask-type:luminance" maskUnits="userSpaceOnUse" x="0" y="0" width="568" height="628">
<path d="M0 627.444H567.477V-3.29153e-06H0V627.444Z" fill="white"/>
</mask>
<g mask="url(#mask7_1_118)">
<path d="M372.33 422.98C372.33 422.98 348.184 422.332 311.894 401.231C311.894 401.231 304.415 397.595 287.436 382.951C289.526 381.028 291.603 379.115 293.978 376.757C293.978 376.757 317.176 354.745 333.642 328.963C345.444 330.376 349.686 320.595 349.686 320.595L350.475 321.069L352.722 322.099C352.722 322.099 358.675 324.252 360.444 330.931C360.444 330.931 359.623 342.947 375.278 344.177C375.278 344.177 383.307 345.613 386.174 351.147L432.15 408.403C432.15 408.403 413.339 426.355 372.33 422.98ZM274.75 371.539C274.75 371.539 253.982 351.8 237.906 327.793C240.694 326.443 249.834 321.283 248.798 311.38L248.234 309.601C248.234 309.601 247.347 306.708 247.902 304.367L267.502 294.18L282.986 285.896H283.551L298.791 293.789L318.852 304.448C319.284 306.799 317.894 309.377 317.894 309.377L317.419 311.057C316.154 322.839 329.103 327.983 329.103 327.983L329.53 328.135C313.446 352.079 292.811 371.539 292.811 371.539C289.631 374.667 286.683 377.427 283.835 379.905C281.066 377.427 278.011 374.667 274.75 371.539ZM255.583 401.231C219.427 422.387 193.087 423.687 193.087 423.687C151.982 427.251 135.075 407.329 135.075 407.329C145.047 394.681 180.168 351.456 180.168 351.456C182.834 345.896 190.975 344.459 190.975 344.459C206.523 343.189 205.61 331.175 205.61 331.175C207.447 324.473 213.386 322.424 213.386 322.424L215.532 321.203C215.532 321.203 216.372 320.825 216.475 320.825C216.75 321.381 221.575 331.215 233.964 328.963C250.532 354.745 273.591 376.721 273.591 376.721C275.967 379.003 278.022 380.943 280.235 382.809C263.386 397.357 255.583 401.231 255.583 401.231ZM232.799 326.952L232.327 327.083C232.327 327.083 222.884 328.963 218.812 319.615L226.343 315.591C228.302 319.421 230.499 323.211 232.799 326.952ZM229.44 313.948L233.212 312.033C233.212 312.033 230.499 318.395 238.791 320.684C238.791 320.684 240.506 321.911 239.074 320.132C239.074 320.132 233.08 316.708 236.963 310.072C236.963 310.072 243.05 306.94 243.22 306.94C243.22 306.94 246.679 309.645 246.216 314.041C246.216 314.041 244.54 322.839 236.548 325.976C233.964 322.04 231.722 317.924 229.44 313.948ZM202.115 243.555C201.927 243.555 203.848 244.585 203.848 244.585L246.131 266.235L253.284 270.033L238.838 276.531L237.095 274.811C235.831 272.921 234.57 273.623 234.57 273.623L232.664 274.48L232.044 276.253L215.72 283.647C210.247 270.444 204.076 254.132 202.115 243.555ZM341.132 316.015C341.132 316.015 347.112 319.239 347.352 319.239C343.336 328.788 335.524 327.197 334.758 327.008C337.059 323.403 339.154 319.695 341.132 316.015ZM326.687 321.109C332.623 319.427 334.247 313.523 334.496 312.651L337.852 314.315C335.722 318.395 333.232 322.46 330.686 326.215C320.682 323.488 319.284 313.729 319.284 313.729C318.852 310.403 321.487 307.547 322.695 306.328L329.706 310.119C333.044 316.289 327.05 319.609 327.05 319.609C325.603 321.523 326.687 321.109 326.687 321.109ZM319.888 266.517L362.256 244.731C362.256 244.731 364.038 243.831 364.18 243.831C362.122 254.273 356.246 270.684 351.231 283.729L334.215 275.871L333.455 274.392L331.528 273.356C331.528 273.356 330.286 272.791 328.872 274.759L327.331 276.253L313.352 270.027C313.196 270.027 319.888 266.517 319.888 266.517ZM476.45 376.721L470.57 372.781L403.24 324.764C403.24 324.764 398.839 321.291 392.95 323.488C392.95 323.488 386.87 325.779 382.007 320.359L370.699 305.541L367.174 301.089C367.174 301.089 360.636 297.341 363.674 287.896L356.808 284.196L354.227 285.097L353.571 284.805C359.226 269.887 365.875 252.26 367.846 241.825L410.035 219.927C413.254 218.855 410.994 215.824 410.994 215.824L426.92 208.243C429.431 207.075 429.25 205.717 429.25 205.717L464.711 190.145L465.087 191.169L470.659 188.548L468.222 183.869L462.648 186.441L463.247 187.517L428.087 203.287L425.472 197.812L472.658 176.345L470.976 172.039L465.463 173.856L463.539 171.849C453.854 164.459 452.494 175.271 452.494 175.271L453.854 179.003L405.339 201.736L403.328 201.129L397.442 203.895L397.923 205.531L393.658 207.637L393.052 206.467L388.464 208.564L388.192 210.483L362.966 221.953L358.382 220.917L355.767 223.675H352.571L313.858 240.231C312.562 243.281 305.436 242.711 305.436 242.711L290.812 247.724C290.011 250.06 287.66 251.508 287.66 251.508L283.271 253.523L278.538 251.276C278.538 251.276 276.163 249.687 275.314 247.487L260.672 242.521C260.672 242.521 253.53 243.133 252.302 239.948L213.518 223.537H210.247L207.675 220.725L203.246 221.663L177.972 210.241L177.688 208.424L173.164 206.189L172.412 207.4L168.246 205.2L168.624 203.655L162.82 200.856L160.766 201.491L112.25 178.719L113.666 174.927C113.666 174.927 112.25 164.269 102.62 171.48L100.66 173.675L95.2336 171.893L92.7843 175.875L140.175 197.48L138.072 202.956L102.847 187.229L103.414 186.061L98.0322 183.588L95.4962 188.356L100.935 190.839L101.406 189.943L136.96 205.531C136.96 205.531 136.772 206.829 139.43 207.876L155.195 215.671C155.195 215.671 152.906 218.663 156.223 219.792L198.006 241.541C200.098 251.921 206.732 269.887 213.046 284.805L211.98 285.319L209.408 284.399L202.632 288.193C205.432 297.536 198.976 301.516 198.976 301.516L195.519 305.757L184.21 320.595C179.33 326.023 173.164 323.769 173.164 323.769C167.303 321.627 162.82 324.992 162.82 324.992L95.4962 372.951L89.7482 376.853C84.8482 382.564 91.2176 385.569 91.2176 385.569C106.824 392.853 116.89 418.693 116.89 418.693C121.091 424.48 125.918 418.589 125.918 418.589L132.23 410.74C132.23 410.74 153.094 431.368 194.218 427.797C194.218 427.797 220.64 427.561 256.836 406.423C256.836 406.423 265.156 402.552 283.779 386.069L310.728 406.423C346.935 427.561 373.547 427.797 373.547 427.797C413.016 431.263 433.274 412.737 434.63 411.475L440.15 418.355C440.15 418.355 444.919 424.207 449.32 418.449C449.32 418.449 459.326 392.676 474.91 385.465C474.91 385.465 481.324 382.244 476.45 376.721Z" fill="white"/>
</g>
<path d="M395.578 457.273H420.17V487.862H467.524L424.765 466.905L467.524 444.778L395.672 444.645L395.578 457.273Z" fill="white"/>
<path d="M170.337 457.273H145.8V487.862H98.4573L141.164 466.905L98.4573 444.778L170.207 444.645L170.337 457.273Z" fill="white"/>
</svg>
