<svg xmlns="http://www.w3.org/2000/svg" width="568" height="628" fill="none" viewBox="0 0 568 628"><mask id="a" width="568" height="628" x="0" y="0" maskUnits="userSpaceOnUse" style="mask-type:luminance"><path fill="#fff" d="M0 627.444h567.477V0H0z"/></mask><g mask="url(#a)"><path fill="#088152" d="M226.86 568.281c-20.297-10.535-73.069-14.096-96.46-17.471-39.341-5.455-81.794-42.612-102.904-74.821-21.606-33.23-24.84-76.576-22.54-110.766 4.203-63.382 50.604-105.994 44.62-158.152-3.364-28.714-45.28-79.234-20.76-107.033 1.584-1.772 2.754-2.373 2.754-2.373 23.764-18.33 43.357-33.916 60.571-59.316 4.543-6.823 11.883-11.834 20.308-11.687l1.878.044c18.092-.19 30.154 16.085 59.817 13.465 43.537-3.696 55.419-35.766 109.541-35.69 0 0 6.888 0 16.054 1.13 56.508 6.926 71.882 57.154 139.848 23.988 4.113-2.018 8.906-2.937 13.474-2.893l1.816-.044c8.418-.147 15.771 4.864 20.448 11.687 17.776 26.436 36.166 40.646 60.956 59.554 14.302 10.422 10.011 36.994 4.062 51.024-21.062 49.955-36.582 64.598-8.427 121.86 13.291 27.171 28.167 59.439 30.504 94.436 2.247 34.19-.989 77.536-22.587 110.766-20.91 32.209-63.488 69.366-102.474 74.821-23.78 3.375-76.628 6.936-96.894 17.471-22.206 11.685-41.914 31.652-56.78 51.67-14.872-20.018-34.602-39.985-56.825-51.67"/><path fill="#fff" d="m283.685 627.443-3.505-4.826c-11.932-15.862-31.248-37.751-55.338-50.319-14.926-7.767-50.046-11.791-75.63-14.552-7.483-.991-14.278-1.685-19.602-2.376-40.145-5.859-83.633-43.084-105.713-76.875C.753 442.95-1.64 397.114.472 365.091c2.09-31.257 13.7-56.894 24.97-81.601 11.799-25.619 22.788-49.855 19.791-75.853-1.03-9.028-6.56-20.955-12.26-33.63-11.979-26.389-25.585-56.322-7.53-76.907 1.913-2.202 3.46-3.186 3.967-3.366 24.05-18.527 42.718-33.676 59.036-57.898 5.94-8.663 14.6-13.722 23.768-13.722l2.394.095c8.546 0 15.426 3.09 22.766 6.273 10.064 4.255 20.44 9.31 36.546 7.354 18.648-1.602 31.17-8.756 44.516-16.382C235.286 9.861 252.669 0 283.4 0c.613 0 7.484 0 16.89 1.222 21.803 2.613 37.992 11.55 52.3 19.496 14.916 8.42 27.874 15.624 45.334 15.624 11.821 0 24.809-3.41 39.797-10.663 4.261-2.207 9.584-3.47 14.964-3.47l1.912-.094c9.833 0 18.535 5.105 24.249 13.722 17.916 26.325 36.526 40.587 60.091 58.411 16.344 12.026 12.307 40.419 5.577 56.368-3.004 7.203-5.9 13.422-8.514 19.264-16.104 35.499-23.396 51.731-.104 98.936 14.374 29.282 28.54 60.95 31.02 96.276 2.144 32.023-.235 77.82-23.39 113.404-21.936 33.791-65.294 71.016-105.709 76.875-5.281.691-12.125 1.385-19.604 2.376-25.572 2.761-60.569 6.785-75.632 14.552-24.321 12.709-43.321 34.457-55.301 50.319zM112.214 31.105c-6.125 0-12.213 3.555-16.377 9.783-17.16 25.202-36.395 41.014-61.601 60.339-.378.32-1.066.646-2.064 1.76-14.363 16.288-2.016 43.415 8.894 67.318 6.031 13.337 11.742 25.777 13.043 36.198 3.092 28.588-8.368 53.838-20.485 80.826-10.95 23.861-22.212 48.753-24.275 78.272-1.961 30.825.273 74.549 21.983 107.948 20.44 31.341 62.308 67.592 99.634 72.87 5.099.743 11.78 1.507 19.274 2.336 26.337 3.051 62.297 7.031 78.816 15.586 23.246 12.252 42.048 32.174 54.629 48.213 12.532-16.039 31.304-35.961 54.677-48.213 16.574-8.555 52.592-12.535 78.871-15.586 7.385-.829 14.167-1.593 19.353-2.336 37.282-5.278 79.154-41.529 99.544-72.87 21.702-33.522 23.952-77.123 21.843-107.948-2.287-33.732-16.045-64.222-30.077-92.803-25.062-51.131-16.124-70.779 0-106.564a688 688 0 0 0 8.385-18.988c5.844-13.885 8.828-37.328-2.677-45.699-23.284-17.82-43.346-33.077-62.082-60.66-4.102-6.227-10.081-9.782-16.353-9.782l-1.823.144c-4.688 0-8.468.699-11.874 2.381-16.154 7.804-30.268 11.643-43.548 11.643-19.667 0-34.251-8.088-49.74-16.79-14.072-7.9-28.9-15.946-48.924-18.466-8.886-1.032-15.482-1.032-15.575-1.032-28.619 0-44.988 9.339-60.951 18.328-13.516 7.58-27.498 15.625-48.118 17.452-18.347 1.17-30.36-3.603-40.747-8.143-6.739-2.945-12.628-5.373-19.128-5.373z"/><path fill="#088152" d="M233.268 556.061c17.264 8.997 37.789 26.797 50.417 41.404 49.547-57.02 83.775-50.754 151.548-60.338 33.539-4.786 73.123-38.232 93.037-68.734 19.13-29.364 22.647-69.122 20.495-102.094-4.027-60.868-51.368-102.997-44.721-160.774 3.468-29.468 36.732-69.596 26.045-93.594-.839-1.454-1.667-2.384-1.995-2.856 0 0-14.222-10.95-28.446-22.08-14.927-11.872-28.671-30.267-35.823-40.885-1.961-2.939-5.237-5.605-9.076-5.605l-1.704.145s-.928-.103-2.333.04c-7.234.753-15.895 6.544-22.624 8.607-26.574 8.793-51.603 5.388-76.196-7.298-27.499-14.08-35.082-23.524-68.207-23.524 0 0-6.221 0-14.363.88-48.916 5.943-66.888 50.582-130.081 29.942-9.912-3.187-16.756-8.235-26.893-8.75-3.696-.042-6.87 2.719-8.784 5.563-17.867 26.53-39.532 44.02-64.456 63.151-11.742 13.342 3.458 40.594 9.3 53.142 20.685 44.442 22.266 68.131-.462 114.551-13.38 27.225-27.045 57.3-29.23 89.345-2.074 32.972 1.357 72.73 20.43 102.094 19.93 30.502 59.412 63.948 93.027 68.734 26.301 3.827 78.075 6.87 101.095 18.934m-6.408 12.22c-20.298-10.554-73.062-14.096-96.448-17.471-39.344-5.465-81.807-42.593-102.916-74.821-21.616-33.23-24.83-76.558-22.54-110.766 4.213-63.39 50.604-105.994 44.62-158.152-3.364-28.72-45.268-79.244-20.759-107.024 1.583-1.776 2.752-2.376 2.752-2.376 23.765-18.35 43.365-33.917 60.563-59.32 4.552-6.825 11.892-11.83 20.318-11.702l1.876.06c18.083-.189 30.156 16.082 59.81 13.47 43.545-3.703 55.428-35.792 109.549-35.685 0 0 6.876 0 16.053 1.117 56.508 6.922 71.883 57.162 139.85 24.002 4.124-2.027 8.894-2.965 13.457-2.904l1.843-.06c8.406-.128 15.77 4.877 20.344 11.702 17.869 26.433 36.258 40.639 61.028 59.543 14.334 10.431 10.032 37.003 4.072 51.033-21.051 49.96-36.57 64.598-8.415 121.86 13.201 27.171 28.176 59.448 30.493 94.436 2.256 34.208-.978 77.536-22.588 110.766-20.898 32.228-63.466 69.356-102.48 74.821-23.764 3.375-76.518 6.917-96.877 17.471-22.197 11.685-41.915 31.662-56.78 51.678-14.871-20.016-34.613-39.993-56.825-51.678"/><path fill="#fff" d="M283.685 24.222c1.919 0 25.819.338 41.444 8.242 16.359 8.187 34.019 24.13 62.871 26.796 27.464 2.335 44.753-6.414 47.848-7.758 2.718-1.455 9.76-3.562 9.76-3.562s9.686-4.442 16.437 5.564c6.735 10.058 19.457 26.89 33.019 37.564 13.378 10.713 27.093 19.976 27.093 19.976s8.875 8.845 2.797 22.919c-6.401 15.337-24.172 49.953-26.338 66.605-4.072 29.699 1.885 48.605 14.697 74.611 12.725 26.19 26.948 57.21 29.036 89.329 2.165 32.105.703 69.8-18.703 99.785-19.65 29.986-54.78 63.221-94.433 68.803-39.801 5.804-78.737 8.555-97.017 18.204-18.338 9.481-38.411 25.405-48.511 39.127-10.245-13.722-30.155-29.646-48.364-39.127-18.564-9.649-57.349-12.4-97.051-18.204-39.806-5.582-74.888-38.817-94.44-68.803-19.414-29.985-20.874-67.68-18.762-99.785 2.156-32.119 16.33-63.139 29.136-89.329 12.626-26.006 18.762-44.912 14.653-74.611-2.29-16.652-20.073-51.268-26.621-66.605-5.747-14.074 3.09-22.919 3.09-22.919s13.552-9.263 27.082-19.976c13.458-10.674 26.273-27.506 32.966-37.564 6.688-10.006 16.376-5.564 16.376-5.564s7.011 2.107 9.96 3.562c2.858 1.343 20.271 10.093 47.712 7.758 28.856-2.665 46.498-18.61 62.78-26.796 15.804-7.904 39.663-8.242 41.483-8.242"/><path fill="#088152" d="M283.08 33.867s23.542 0 39.393 7.948c15.801 7.903 32.913 22.731 60.669 25.782 27.816 3.084 49.342-5.624 52.044-6.926 2.61-1.461 9.598-3.565 9.598-3.565s5.564-2.24 9.953 3.935c6.799 9.541 19.131 26.582 32.332 36.992 12.995 10.292 27.037 19.188 27.037 19.188s3.968 4.865-1.506 16.648c-5.38 11.728-21.838 42.701-24.608 64.729-2.666 22.132 1.754 52.669 14.093 77.791 12.344 25.172 28.108 55.146 30.269 86.158 1.959 31.108.212 68.21-18.681 97.166-18.796 28.902-52.327 60-90.917 65.524-38.314 5.378-76.238 7.858-94.159 17.226-17.699 9.344-34.812 22.955-44.631 36.203-9.858-13.248-28.817-26.859-46.44-36.203-17.829-9.368-55.954-11.848-94.253-17.226-38.447-5.524-72.127-36.622-90.937-65.524-18.712-28.956-20.58-66.058-18.488-97.166 2.017-31.012 17.793-60.986 30.184-86.158 12.346-25.122 17.538-46.967 14.634-69.182-2.713-22.033-19.506-57.813-26.517-71.75-5.993-11.507-.095-18.236-.095-18.236s13.986-8.896 26.99-19.188c13.098-10.41 25.445-27.555 32.322-36.992 4.296-5.807 10.291-4.068 10.291-4.068s9.311 2.609 12.072 3.969c2.796 1.45 21.465 9.739 49.34 6.655 27.743-3.051 44.817-17.879 60.584-25.782 15.767-7.948 39.427-7.948 39.427-7.948"/><path fill="#fff" d="M241.353 173.722c-.177 2.328.32 8.277-3.467 8.277-4.673 0-4.806-4.865-4.806-7.905v-10.058c0-2.946-.424-9.21 4.806-9.21 3.29 0 3.051 4.349 3.29 6.673h6.725c.088-.963 0-1.805-.035-2.748-.518-6.224-3.988-9.357-9.98-9.451-10.752 0-11.534 6.883-11.828 16.138v5.24c0 9.729.708 16.834 11.828 16.834 7.443 0 9.78-5.093 10.103-11.736.103-.646.103-1.396.207-2.054z"/></g><path fill="#fff" d="M269.888 150.191v14.403h-9.5v-14.403h-6.689v36.491h6.689V169.88h9.5v16.802h6.869v-36.491zm13.512 36.49h6.693v-36.548H283.4zm13.288-36.49v36.491h19.425v-5.38h-12.547v-31.111zm24.19 0v36.491h19.036v-5.38h-12.302v-11.328h11.427v-5.327h-11.427v-9.169h12.302v-5.287z"/><mask id="b" width="568" height="628" x="0" y="0" maskUnits="userSpaceOnUse" style="mask-type:luminance"><path fill="#fff" d="M0 627.444h567.477V0H0z"/></mask><g fill="#fff" mask="url(#b)"><path d="M121.902 125.765c-.093 2.26.359 8.388-3.429 8.388-4.535 0-4.807-4.92-4.807-7.951v-10.148c0-2.822-.432-9.169 4.807-9.169 3.336 0 3.097 4.391 3.429 6.685h6.728c.048-.98 0-1.87-.191-2.772-.374-6.166-3.824-9.252-9.966-9.496-10.668 0-11.508 7.023-11.827 16.192v5.192c0 9.774.789 16.927 11.827 16.927 7.538 0 9.873-5.039 10.205-11.787.047-.7.047-1.393.084-2.061zm21.692-12.005c.331-1.688.568-3.283.661-4.963 0-.932.227-1.682.227-2.524h.244c0 .842.076 1.592.076 2.524.244 1.68.385 3.275.811 4.963l1.676 10.421h-5.796zm-4.92 25.023 1.885-9.263h7.992l1.679 9.263h7.264l-8.283-36.535h-9.076l-8.792 36.535zm29.241-31.257h5.052c2.574 0 4.307.8 4.307 4.861 0 3.611-1.733 5.065-3.976 5.297h-5.383zm1.255 15.44c1.893 0 3.995 0 5.711.466 2.393.75 2.393 3.83 2.393 6.088 0 2.38 0 6.874.697 9.262h7.539v-.711c-1.733-1.069-1.545-10.048-1.545-11.556 0-3.549-1.122-6.076-5.335-6.629v-.147c4.711-.563 5.711-4.716 5.711-8.835 0-6.597-4.448-8.652-10.291-8.652h-12.965v36.53h6.83v-15.816zm31.031-9.206a60 60 0 0 0 .745-4.963c0-.932.132-1.682.132-2.524h.057c.282.842.32 1.592.32 2.524.235 1.68.422 3.275.754 4.963l1.792 10.421h-5.77zm-4.872 25.023 1.914-9.263h7.823l1.771 9.263h7.245l-8.179-36.535h-9.217l-8.595 36.535zm34.48-.006c4.76 0 7.379-2.053 8.888-6.638.376-1.398.414-2.906.414-4.495 0-4.679-1.451-7.905-5.334-8.468v-.131c3.79-1.314 4.438-4.446 4.438-7.538 0-2.515-.31-4.632-1.864-6.592-1.82-2.582-4.664-2.663-7.624-2.663h-10.988v36.525zm-5.249-21.749v-9.503h3.092c3.176.146 3.647 1.544 3.647 4.222 0 1.817 0 3.033-.652 3.888-1.084 1.44-3.231 1.393-4.919 1.393zm0 16.323v-10.992h2.716c4.023 0 4.861 1.59 4.861 5.478 0 1.967-.234 4.302-2.045 5.094-1.176.658-2.676.42-4.04.42z"/></g><path fill="#fff" d="M244.953 138.777h6.784v-36.529h-6.784z"/><mask id="c" width="568" height="628" x="0" y="0" maskUnits="userSpaceOnUse" style="mask-type:luminance"><path fill="#fff" d="M0 627.444h567.477V0H0z"/></mask><g mask="url(#c)"><path fill="#fff" d="M274.57 109.459c0 3.132.18 6.585.463 10.236.047 3.421.339 7.106.565 10.281h-.093c-1.679-5.836-2.997-10.229-4.721-14.533l-5.382-13.195h-7.029v36.535h6.804V131.9c0-2.94-.197-6.555-.341-10.244-.235-3.699-.564-7.341-.839-10.473h.275c1.489 5.85 2.994 10.241 4.861 14.501l5.144 13.099h6.976v-36.535h-6.683z"/></g><path fill="#fff" d="M287.947 102.253v36.525h19.073v-5.428h-12.459v-11.26h11.4v-5.344h-11.4v-9.22h12.459v-5.273z"/><mask id="d" width="568" height="628" x="0" y="0" maskUnits="userSpaceOnUse" style="mask-type:luminance"><path fill="#fff" d="M0 627.444h567.477V0H0z"/></mask><g fill="#fff" mask="url(#d)"><path d="M319.004 107.526h4.993c2.595 0 4.219.8 4.219 4.861 0 3.611-1.624 5.065-3.936 5.297h-5.276zm1.109 15.44c1.979 0 3.942 0 5.771.466 2.332.75 2.332 3.83 2.332 6.088.093 2.38-.052 6.874.803 9.262h7.518v-.711c-1.78-1.069-1.498-10.048-1.498-11.556 0-3.549-1.158-6.076-5.334-6.629v-.147c4.688-.563 5.626-4.716 5.626-8.835 0-6.597-4.49-8.652-10.24-8.652h-12.968v36.53h6.881v-15.816zm28.508-6.922c0-2.799-.437-9.306 4.907-9.306 5 0 4.865 6.546 4.865 9.551v9.301c0 3.454 0 8.563-4.865 8.563-4.776 0-4.907-5.057-4.907-7.959zm-6.969 6.781c0 9.828.793 16.835 11.876 16.835s11.885-7.007 11.885-16.835v-5.232c-.337-9.268-1.084-16.283-11.885-16.283-10.807 0-11.603 7.015-11.876 16.283zm50.364-9.542c-.056-3.549.245-11.973-10.52-11.973-7.119 0-10.667 3.416-10.667 9.593 0 2.003.661 3.931 1.635 5.606 2.813 3.742 7.301 5.75 10.844 8.51 1.641 1.268 2.63 2.626 2.63 4.868 0 2.766-1.401 4.266-4.157 4.266-3.368 0-4.391-2.62-4.327-6.131v-2.197H370.7v2.569c0 6.54 2.941 11.227 11.081 11.227 6.599 0 11.121-3.558 11.121-10.578 0-3.081-.641-5.328-3.03-7.62-1.872-1.73-5.939-4.536-8.147-5.981-2.239-1.413-3.979-2.432-3.979-5.145 0-2.542 1.488-3.422 3.848-3.422 3.642 0 3.923 3.228 3.871 6.408zm31.53 25.494c1.678 0 3.458 0 4.969-.973 5.56-3.239 5.56-11.516 5.56-18.809 0-6.09-.483-10.151-1.925-12.587-2.23-3.463-5.416-4.156-7.02-4.156h-14.171v36.525zm-5.843-5.426v-25.826h4.532c4.031 0 4.915 3.42 4.915 12.167 0 10.481-.416 13.659-6.374 13.659z"/></g><path fill="#fff" d="M440.19 102.253v36.525h19.136v-5.428h-12.332v-11.26h11.411v-5.344h-11.411v-9.22h12.332v-5.273zM149.872 504.052h266.465v-43.216H149.872z"/><mask id="e" width="568" height="628" x="0" y="0" maskUnits="userSpaceOnUse" style="mask-type:luminance"><path fill="#fff" d="M0 627.444h567.477V0H0z"/></mask><g fill="#088152" mask="url(#e)"><path d="M165.439 480.472c0 2.252.424 3.979 1.544 5.297 1.18 1.075 2.385 1.763 4.081 1.763 1.818 0 2.986-.688 4.136-1.763.999-1.281 1.614-3.045 1.614-5.35 0-2.434-.615-4.158-1.614-5.383-1.056-1.168-2.318-1.761-4.136-1.761-1.696 0-3.044.593-4.081 1.761-1.12 1.225-1.544 3.065-1.544 5.436m-4.345 0c0-2.052.272-3.833.933-5.191.415-1.121 1.112-2.006 2.017-2.856.831-.837 1.723-1.508 2.658-1.809 1.213-.623 2.666-.944 4.362-.944 2.986 0 5.502 1.019 7.284 2.847 1.82 1.922 2.716 4.541 2.716 7.953 0 3.317-.896 5.901-2.716 7.759-1.782 1.93-4.298 2.817-7.284 2.817-2.901 0-5.39-.887-7.208-2.755-1.876-1.902-2.762-4.504-2.762-7.821m27.3-1.544h3.101c2.006 0 3.175-.18 3.74-.432.424-.133.931-.267 1.17-.773.225-.387.376-.943.376-1.699 0-.601-.19-1.071-.51-1.583a3.55 3.55 0 0 0-1.601-.792h-6.276zm-4.063 11.777v-20.568h8.622c2.282 0 3.828.14 4.901.554.933.284 1.641 1.029 2.347 1.821.605 1.084.877 2.167.877 3.42a6.1 6.1 0 0 1-1.356 3.788c-.935.98-2.245 1.657-4.063 1.923.932.509 1.688 1.074 2.195 1.733.652.564 1.455 1.723 2.347 3.317l2.478 4.012h-4.825l-3.035-4.464c-1.121-1.649-1.866-2.638-2.11-3.092-.547-.432-.944-.573-1.404-.716-.33-.226-1.119-.281-2.008-.281h-.903v8.553zm24.841-17.156v13.711h3.089c1.124 0 1.915-.047 2.516-.235.53-.107 1.04-.425 1.604-.891.375-.374.792-.989 1.074-1.966.284-.886.413-2.102.413-3.696 0-1.676-.129-2.911-.413-3.692-.282-.848-.699-1.64-1.216-1.97-.519-.517-1.083-.876-1.923-1.026-.469-.135-1.723-.235-3.26-.235zm-4.156-3.404h7.52c1.78 0 2.959.121 3.845.369 1.263.328 2.412.934 3.186 1.911.838.849 1.536 1.961 2.008 3.243.366 1.282.517 2.986.517 4.901 0 1.788-.151 3.241-.517 4.389-.472 1.547-1.256 2.754-2.159 3.552-.831.746-1.772 1.311-3.035 1.727-.942.244-2.065.491-3.561.491h-7.804z"/></g><path fill="#088152" d="M225.634 470.137v20.579h15.531v-3.456h-11.356v-5.617h10.235v-3.402h-10.235v-4.592h11.14v-3.512zm31.571 0v13.652l-8.274-13.652h-4.213v20.579h3.985v-13.389l8.274 13.389h4.109v-20.579zm28.545 0-4.725 8.104-4.862-8.104h-4.872l7.532 11.835v8.744h4.163v-8.661l7.575-11.918z"/><mask id="f" width="568" height="628" x="0" y="0" maskUnits="userSpaceOnUse" style="mask-type:luminance"><path fill="#fff" d="M0 627.444h567.477V0H0z"/></mask><g mask="url(#f)"><path fill="#088152" d="M304.738 473.649v5.751h2.287c1.545 0 2.609-.133 3.177-.247.526-.225.9-.657 1.375-1.052.264-.378.452-1 .452-1.605 0-.828-.333-1.403-.64-1.817-.484-.519-1.129-.811-1.755-.943-.449-.087-1.438-.087-2.88-.087zm-4.208 17.056v-20.56h6.73c2.534 0 4.129.122 4.862.319a4.53 4.53 0 0 1 2.866 2.008c.874.989 1.301 2.376 1.301 3.929 0 1.415-.176 2.387-.697 3.224a5.55 5.55 0 0 1-1.734 2.018c-.756.564-1.361.924-2.204 1.082-1.041.143-2.432.18-4.208.18h-2.708v7.8z"/></g><path fill="#088152" d="m327.69 474.953 2.766 7.678h-5.459zm-2.138-4.807-7.814 20.569h4.208l1.791-4.68h8.177l1.771 4.68h4.504l-8.232-20.569zm13.331-.009v3.512h6.029v17.067h4.211v-17.067h6.123v-3.512z"/><mask id="g" width="568" height="628" x="0" y="0" maskUnits="userSpaceOnUse" style="mask-type:luminance"><path fill="#fff" d="M0 627.444h567.477V0H0z"/></mask><g mask="url(#g)"><path fill="#088152" d="M362.121 478.928h2.964c1.995 0 3.262-.18 3.734-.432.468-.133.842-.267 1.166-.773.339-.387.516-.943.516-1.699 0-.601-.281-1.071-.672-1.583-.478-.338-.914-.657-1.482-.792h-6.226zm-4.238 11.777v-20.568h8.654c2.282 0 3.964.14 4.954.554.896.284 1.826 1.029 2.328 1.821.614 1.084.942 2.167.942 3.42 0 1.441-.514 2.816-1.401 3.788-.973.98-2.301 1.657-4.073 1.923.933.509 1.542 1.074 2.304 1.733.504.564 1.306 1.723 2.228 3.317l2.478 4.012h-4.806l-3.144-4.464c-.986-1.649-1.81-2.638-2.195-3.092-.417-.432-.751-.573-1.217-.716-.418-.226-1.074-.281-2.054-.281h-.76v8.553z"/></g><path fill="#088152" d="M378.444 490.669h4.219v-20.542h-4.219zm16.115-15.716 2.848 7.678h-5.428zm-2.031-4.807-8.184 20.569h4.579l1.645-4.68h8.177l1.834 4.68h4.338l-8.068-20.569z"/><mask id="h" width="568" height="628" x="0" y="0" maskUnits="userSpaceOnUse" style="mask-type:luminance"><path fill="#fff" d="M0 627.444h567.477V0H0z"/></mask><g mask="url(#h)"><path fill="#fff" d="M372.33 422.98s-24.146-.648-60.436-21.749c0 0-7.479-3.636-24.458-18.28 2.09-1.923 4.167-3.836 6.542-6.194 0 0 23.198-22.012 39.664-47.794 11.802 1.413 16.044-8.368 16.044-8.368l.789.474 2.247 1.03s5.953 2.153 7.722 8.832c0 0-.821 12.016 14.834 13.246 0 0 8.029 1.436 10.896 6.97l45.976 57.256s-18.811 17.952-59.82 14.577m-97.58-51.441s-20.768-19.739-36.844-43.746c2.788-1.35 11.928-6.51 10.892-16.413l-.564-1.779s-.887-2.893-.332-5.234l19.6-10.187 15.484-8.284h.565l15.24 7.893 20.061 10.659c.432 2.351-.958 4.929-.958 4.929l-.475 1.68c-1.265 11.782 11.684 16.926 11.684 16.926l.427.152c-16.084 23.944-36.719 43.404-36.719 43.404-3.18 3.128-6.128 5.888-8.976 8.366-2.769-2.478-5.824-5.238-9.085-8.366m-19.167 29.692c-36.156 21.156-62.496 22.456-62.496 22.456-41.105 3.564-58.012-16.358-58.012-16.358 9.972-12.648 45.093-55.873 45.093-55.873 2.666-5.56 10.807-6.997 10.807-6.997 15.548-1.27 14.635-13.284 14.635-13.284 1.837-6.702 7.776-8.751 7.776-8.751l2.146-1.221s.84-.378.943-.378c.275.556 5.1 10.39 17.489 8.138 16.568 25.782 39.627 47.758 39.627 47.758 2.376 2.282 4.431 4.222 6.644 6.088-16.849 14.548-24.652 18.422-24.652 18.422m-22.784-74.279-.472.131s-9.443 1.88-13.515-7.468l7.531-4.024c1.959 3.83 4.156 7.62 6.456 11.361m-3.359-13.004 3.772-1.915s-2.713 6.362 5.579 8.651c0 0 1.715 1.227.283-.552 0 0-5.994-3.424-2.111-10.06 0 0 6.087-3.132 6.257-3.132 0 0 3.459 2.705 2.996 7.101 0 0-1.676 8.798-9.668 11.935-2.584-3.936-4.826-8.052-7.108-12.028m-27.325-70.393c-.188 0 1.733 1.03 1.733 1.03l42.283 21.65 7.153 3.798-14.446 6.498-1.743-1.72c-1.264-1.89-2.525-1.188-2.525-1.188l-1.906.857-.62 1.773-16.324 7.394c-5.473-13.203-11.644-29.515-13.605-40.092m139.017 72.46s5.98 3.224 6.22 3.224c-4.016 9.549-11.828 7.958-12.594 7.769 2.301-3.605 4.396-7.313 6.374-10.993m-14.445 5.094c5.936-1.682 7.56-7.586 7.809-8.458l3.356 1.664c-2.13 4.08-4.62 8.145-7.166 11.9-10.004-2.727-11.402-12.486-11.402-12.486-.432-3.326 2.203-6.182 3.411-7.401l7.011 3.791c3.338 6.17-2.656 9.49-2.656 9.49-1.447 1.914-.363 1.5-.363 1.5m-6.799-54.592 42.368-21.786s1.782-.9 1.924-.9c-2.058 10.442-7.934 26.853-12.949 39.898l-17.016-7.858-.76-1.479-1.927-1.036s-1.242-.565-2.656 1.403l-1.541 1.494-13.979-6.226c-.156 0 6.536-3.51 6.536-3.51M476.45 376.721l-5.88-3.94-67.33-48.017s-4.401-3.473-10.29-1.276c0 0-6.08 2.291-10.943-3.129l-11.308-14.818-3.525-4.452s-6.538-3.748-3.5-13.193l-6.866-3.7-2.581.901-.656-.292c5.655-14.918 12.304-32.545 14.275-42.98l42.189-21.898c3.219-1.072.959-4.103.959-4.103l15.926-7.581c2.511-1.168 2.33-2.526 2.33-2.526l35.461-15.572.376 1.024 5.572-2.621-2.437-4.679-5.574 2.572.599 1.076-35.16 15.77-2.615-5.475 47.186-21.467-1.682-4.306-5.513 1.817-1.924-2.007c-9.685-7.39-11.045 3.422-11.045 3.422l1.36 3.732-48.515 22.733-2.011-.607-5.886 2.766.481 1.636-4.265 2.106-.606-1.17-4.588 2.097-.272 1.919-25.226 11.47-4.584-1.036-2.615 2.758h-3.196l-38.713 16.556c-1.296 3.05-8.422 2.48-8.422 2.48l-14.624 5.013c-.801 2.336-3.152 3.784-3.152 3.784l-4.389 2.015-4.733-2.247s-2.375-1.589-3.224-3.789l-14.642-4.966s-7.142.612-8.37-2.573l-38.784-16.411h-3.271l-2.572-2.812-4.429.938-25.274-11.422-.284-1.817-4.524-2.235-.752 1.211-4.166-2.2.378-1.545-5.804-2.799-2.054.635-48.516-22.772 1.416-3.792s-1.416-10.658-11.046-3.447l-1.96 2.195-5.426-1.782-2.45 3.982 47.391 21.605-2.103 5.476-35.225-15.727.567-1.168-5.382-2.473-2.536 4.768 5.439 2.483.471-.896 35.554 15.588s-.188 1.298 2.47 2.345l15.765 7.795s-2.289 2.992 1.028 4.121l41.783 21.749c2.092 10.38 8.726 28.346 15.04 43.264l-1.066.514-2.572-.92-6.776 3.794c2.8 9.343-3.656 13.323-3.656 13.323l-3.457 4.241-11.309 14.838c-4.88 5.428-11.046 3.174-11.046 3.174-5.861-2.142-10.344 1.223-10.344 1.223l-67.324 47.959-5.748 3.902c-4.9 5.711 1.47 8.716 1.47 8.716 15.606 7.284 25.672 33.124 25.672 33.124 4.201 5.787 9.028-.104 9.028-.104l6.312-7.849s20.864 20.628 61.988 17.057c0 0 26.422-.236 62.618-21.374 0 0 8.32-3.871 26.943-20.354l26.949 20.354c36.207 21.138 62.819 21.374 62.819 21.374 39.469 3.466 59.727-15.06 61.083-16.322l5.52 6.88s4.769 5.852 9.17.094c0 0 10.006-25.773 25.59-32.984 0 0 6.414-3.221 1.54-8.744"/></g><path fill="#fff" d="M395.578 457.273h24.592v30.589h47.354l-42.759-20.957 42.759-22.127-71.852-.133zm-225.241 0H145.8v30.589H98.457l42.707-20.957-42.707-22.127 71.75-.133z"/></svg>