<svg xmlns="http://www.w3.org/2000/svg" width="1024" height="2000" fill="none" viewBox="0 0 1064 2147">
  <path fill="#0E1629" d="M1047.37 339.5h-2.02V127.36C1045.35 57.021 988.33 0 917.992 0H146.01C75.671 0 18.65 57.021 18.65 127.36V339.5h-2.022C7.445 339.5 0 346.944 0 356.127v146.745c0 9.183 7.444 16.628 16.628 16.628h2.022v35h-2.022C7.445 554.5 0 561.944 0 571.127v146.745c0 9.183 7.444 16.627 16.628 16.627h2.022V2019.64c0 70.34 57.021 127.36 127.36 127.36h771.981c70.339 0 127.359-57.02 127.359-127.36V609.5h2.02c9.19 0 16.63-7.444 16.63-16.628V356.127c0-9.183-7.44-16.627-16.63-16.627Z"/>
</svg>
